<?xml version="1.0" standalone="no"?>
<!DOCTYPE svg PUBLIC "-//W3C//DTD SVG 20010904//EN"
 "http://www.w3.org/TR/2001/REC-SVG-20010904/DTD/svg10.dtd">
<svg version="1.0" xmlns="http://www.w3.org/2000/svg"
 width="512.000000pt" height="512.000000pt" viewBox="0 0 512.000000 512.000000"
 preserveAspectRatio="xMidYMid meet">
<metadata>
Created by potrace 1.14, written by Peter Selinger 2001-2017
</metadata>
<g transform="translate(0.000000,512.000000) scale(0.100000,-0.100000)"
fill="#000000" stroke="none">
<path d="M2522 5113 c-32 -13 -37 -49 -42 -302 l-5 -253 -55 -4 c-245 -15
-507 -86 -735 -198 -122 -60 -251 -138 -320 -192 -16 -14 -35 -28 -40 -32 -75
-53 -254 -230 -327 -322 -42 -53 -112 -152 -133 -188 -5 -9 -17 -28 -26 -42
-9 -14 -37 -65 -62 -115 -123 -243 -189 -483 -212 -770 -2 -16 -3 -36 -4 -42
-1 -10 -59 -13 -256 -13 l-256 0 -24 -26 c-35 -38 -29 -100 12 -120 10 -5 132
-11 272 -14 l253 -5 4 -65 c2 -36 9 -94 14 -130 6 -36 13 -78 16 -95 45 -281
227 -669 419 -895 63 -75 180 -194 234 -239 24 -20 55 -46 70 -59 106 -94 381
-247 559 -312 94 -34 255 -77 322 -86 25 -3 47 -8 50 -9 5 -3 91 -13 178 -20
20 -2 40 -4 44 -4 4 -1 8 -118 10 -261 3 -288 3 -286 71 -297 30 -5 40 -1 61
22 l26 28 0 253 c0 196 3 254 13 255 6 1 23 2 37 4 14 1 57 5 95 9 107 10 288
50 410 91 505 170 923 536 1156 1010 88 180 156 384 175 523 3 26 8 50 10 53
3 5 9 67 19 179 2 19 4 38 4 43 1 4 113 7 250 7 137 0 257 3 266 6 25 10 47
62 40 95 -13 57 -25 59 -302 59 -139 0 -253 3 -254 8 0 4 -2 34 -5 67 -19 287
-126 618 -286 883 -45 74 -158 232 -192 268 -6 6 -32 33 -57 60 -176 186 -351
315 -574 424 -264 130 -490 189 -792 209 -10 1 -13 57 -13 244 0 133 -3 252
-6 265 -10 36 -72 61 -112 45z m-42 -959 c0 -134 4 -254 10 -268 19 -51 87
-59 130 -16 19 19 20 34 20 275 l0 254 43 -4 c123 -12 159 -17 232 -31 549
-105 1036 -476 1287 -979 106 -211 176 -461 192 -682 l4 -63 -252 0 -253 0
-27 -25 c-14 -13 -26 -33 -26 -45 0 -33 27 -77 52 -84 13 -3 132 -6 266 -6
l242 0 -5 -52 c-25 -266 -82 -474 -190 -690 -161 -321 -423 -599 -730 -773
-153 -88 -390 -179 -530 -204 -33 -6 -69 -13 -81 -15 -22 -4 -82 -12 -171 -21
l-53 -6 0 253 c0 279 -2 290 -60 303 -42 9 -68 -2 -85 -35 -12 -23 -15 -77
-15 -274 l0 -245 -47 4 c-165 15 -292 39 -423 80 -513 162 -933 542 -1142
1035 -38 89 -93 261 -103 319 -3 19 -7 37 -9 40 -2 3 -7 29 -10 56 -4 28 -9
64 -11 80 -3 17 -7 56 -10 88 l-4 57 255 0 255 0 24 26 c26 28 29 43 19 82
-13 47 -44 52 -308 52 l-245 0 5 73 c10 145 92 485 125 522 5 5 9 15 9 22 0
14 67 152 109 227 200 353 556 654 943 796 116 43 228 75 298 85 24 4 47 8 50
10 3 2 37 6 75 10 39 4 71 8 72 9 1 1 18 2 38 3 l35 1 0 -244z"/>
<path d="M1706 3735 c-26 -28 -26 -29 -26 -201 0 -193 1 -190 -66 -158 -52 25
-80 65 -93 133 -10 51 -17 63 -41 76 -42 22 -68 19 -96 -12 -24 -25 -25 -34
-20 -86 14 -143 130 -264 271 -282 37 -5 51 -12 53 -24 4 -40 29 -122 50 -168
25 -54 49 -90 105 -155 l48 -58 -39 0 c-62 0 -138 29 -176 67 -44 44 -65 88
-76 161 -14 84 -55 111 -120 77 -36 -19 -43 -42 -35 -113 14 -130 100 -248
222 -309 l76 -38 169 -3 168 -4 0 -39 0 -39 -45 0 c-89 0 -132 -46 -105 -111
15 -36 44 -49 106 -49 l44 0 0 -293 c0 -219 3 -297 13 -310 6 -8 108 -93 226
-186 159 -127 220 -171 241 -171 20 0 81 43 236 166 115 91 217 175 227 186
15 18 17 49 17 314 l0 294 49 0 c27 0 57 3 66 6 25 10 47 62 40 95 -9 41 -40
59 -102 59 l-53 0 0 40 0 40 145 2 c80 0 151 1 158 2 65 3 202 84 251 149 63
82 100 219 77 280 -19 48 -77 59 -125 24 -13 -9 -22 -33 -27 -71 -10 -76 -29
-115 -82 -163 -46 -43 -123 -69 -179 -61 l-26 3 44 49 c24 27 59 75 77 106 35
59 77 176 77 217 0 19 5 23 30 23 42 0 118 28 167 62 57 38 100 103 120 180
24 94 6 144 -57 154 -52 7 -80 -20 -91 -85 -10 -63 -48 -117 -95 -137 -66 -27
-64 -32 -64 154 0 114 -4 175 -13 192 -15 30 -54 45 -90 36 -51 -12 -56 -42
-57 -299 -1 -175 -5 -250 -17 -293 -45 -173 -173 -302 -344 -348 -79 -21 -634
-22 -713 -1 -185 48 -332 207 -360 390 -2 17 -5 136 -5 266 -1 266 -3 274 -73
286 -31 5 -40 1 -62 -22z m1174 -1455 l0 -360 -320 0 -320 0 0 360 0 360 320
0 320 0 0 -360z m-176 -542 c-16 -12 -31 -25 -34 -28 -20 -21 -101 -80 -110
-80 -9 0 -90 59 -110 80 -3 3 -18 16 -34 28 l-29 22 173 0 173 0 -29 -22z"/>
</g>
</svg>
